<?xml version="1.0" standalone="no"?>
<!DOCTYPE svg PUBLIC "-//W3C//DTD SVG 20010904//EN"
 "http://www.w3.org/TR/2001/REC-SVG-20010904/DTD/svg10.dtd">
<svg version="1.0" xmlns="http://www.w3.org/2000/svg"
 width="270.000000pt" height="270.000000pt" viewBox="0 0 270.000000 270.000000"
 preserveAspectRatio="xMidYMid meet">

<g transform="translate(0.000000,270.000000) scale(0.100000,-0.100000)"
fill="#000000" stroke="none">
<path d="M240 2250 l0 -210 210 0 210 0 0 210 0 210 -210 0 -210 0 0 -210z
m360 0 l0 -150 -150 0 -150 0 0 150 0 150 150 0 150 0 0 -150z"/>
<path d="M360 2250 l0 -90 90 0 90 0 0 90 0 90 -90 0 -90 0 0 -90z"/>
<path d="M720 2400 l0 -60 30 0 c27 0 30 -3 30 -30 0 -27 -3 -30 -30 -30 -27
0 -30 -3 -30 -30 0 -27 3 -30 30 -30 l30 0 0 -60 0 -60 -30 0 -30 0 0 -60 0
-60 -90 0 -90 0 0 -30 0 -30 60 0 60 0 0 -30 c0 -27 -3 -30 -30 -30 -27 0 -30
-3 -30 -30 0 -27 -3 -30 -30 -30 -27 0 -30 -3 -30 -30 0 -27 3 -30 30 -30 27
0 30 -3 30 -30 l0 -30 60 0 60 0 0 -30 0 -30 -60 0 -60 0 0 -30 c0 -27 -3 -30
-30 -30 l-30 0 0 60 0 60 -30 0 c-27 0 -30 3 -30 30 0 27 -3 30 -30 30 l-30 0
0 60 0 60 30 0 30 0 0 60 0 60 -60 0 -60 0 0 -30 c0 -27 3 -30 30 -30 27 0 30
-3 30 -30 l0 -30 -90 0 -90 0 0 -90 0 -90 30 0 30 0 0 -60 0 -60 60 0 60 0 0
-30 0 -30 -90 0 -90 0 0 -30 0 -30 60 0 60 0 0 -30 0 -30 -60 0 -60 0 0 -30 0
-30 60 0 60 0 0 -60 0 -60 -30 0 -30 0 0 -60 0 -60 -30 0 -30 0 0 -120 0 -120
30 0 c27 0 30 -3 30 -30 0 -27 -3 -30 -30 -30 -27 0 -30 -3 -30 -30 l0 -30 90
0 90 0 0 90 0 90 30 0 c27 0 30 -3 30 -30 0 -27 3 -30 30 -30 27 0 30 -3 30
-30 0 -27 3 -30 30 -30 27 0 30 -3 30 -30 l0 -30 60 0 60 0 0 -90 0 -90 60 0
60 0 0 -60 0 -60 60 0 60 0 0 30 c0 27 3 30 30 30 27 0 30 -3 30 -30 0 -27 3
-30 30 -30 27 0 30 -3 30 -30 l0 -30 -150 0 -150 0 0 60 0 60 -30 0 -30 0 0
-60 0 -60 30 0 c27 0 30 -3 30 -30 0 -27 -3 -30 -30 -30 -27 0 -30 -3 -30 -30
l0 -30 120 0 120 0 0 30 c0 27 3 30 30 30 27 0 30 -3 30 -30 0 -27 3 -30 30
-30 l30 0 0 60 0 60 30 0 c27 0 30 -3 30 -30 0 -27 3 -30 30 -30 27 0 30 -3
30 -30 l0 -30 60 0 60 0 0 30 0 30 60 0 60 0 0 -30 c0 -27 3 -30 30 -30 27 0
30 3 30 30 0 27 -3 30 -30 30 -27 0 -30 3 -30 30 l0 30 -60 0 -60 0 0 30 c0
27 -3 30 -30 30 l-30 0 0 60 0 60 60 0 60 0 0 -30 0 -30 60 0 60 0 0 -30 c0
-27 3 -30 30 -30 27 0 30 3 30 30 0 27 -3 30 -30 30 -27 0 -30 3 -30 30 0 27
3 30 30 30 27 0 30 3 30 30 0 27 3 30 30 30 27 0 30 -3 30 -30 l0 -30 60 0 60
0 0 60 0 60 30 0 c27 0 30 -3 30 -30 0 -27 3 -30 30 -30 27 0 30 -3 30 -30 0
-27 -3 -30 -30 -30 l-30 0 0 -60 0 -60 -60 0 -60 0 0 30 c0 27 -3 30 -30 30
l-30 0 0 -60 0 -60 -30 0 c-27 0 -30 -3 -30 -30 l0 -30 60 0 60 0 0 30 c0 27
3 30 30 30 l30 0 0 -60 0 -60 60 0 60 0 0 30 c0 27 -3 30 -30 30 -27 0 -30 3
-30 30 l0 30 60 0 60 0 0 60 0 60 30 0 c27 0 30 -3 30 -30 0 -27 3 -30 30 -30
27 0 30 -3 30 -30 0 -27 -3 -30 -30 -30 l-30 0 0 -60 0 -60 60 0 60 0 0 30 c0
27 3 30 30 30 27 0 30 -3 30 -30 0 -27 3 -30 30 -30 l30 0 0 90 0 90 30 0 30
0 0 -90 0 -90 90 0 90 0 0 30 0 30 -60 0 -60 0 0 60 0 60 -30 0 -30 0 0 60 0
60 -30 0 -30 0 0 90 0 90 30 0 30 0 0 -60 0 -60 60 0 60 0 0 -30 c0 -27 3 -30
30 -30 l30 0 0 90 0 90 -30 0 c-27 0 -30 3 -30 30 l0 30 -60 0 -60 0 0 30 0
30 60 0 60 0 0 30 c0 27 3 30 30 30 27 0 30 3 30 30 0 27 -3 30 -30 30 -27 0
-30 3 -30 30 0 27 3 30 30 30 27 0 30 3 30 30 l0 30 -150 0 -150 0 0 30 0 30
-60 0 -60 0 0 60 0 60 -30 0 c-27 0 -30 3 -30 30 l0 30 60 0 60 0 0 -60 0 -60
60 0 60 0 0 -30 c0 -27 3 -30 30 -30 l30 0 0 60 0 60 -60 0 -60 0 0 30 0 30
90 0 90 0 0 -30 c0 -27 3 -30 30 -30 27 0 30 -3 30 -30 0 -27 3 -30 30 -30 27
0 30 3 30 30 0 27 -3 30 -30 30 -27 0 -30 3 -30 30 0 27 3 30 30 30 l30 0 0
120 0 120 -60 0 -60 0 0 30 0 30 60 0 60 0 0 60 0 60 -60 0 -60 0 0 60 0 60
30 0 c27 0 30 3 30 30 0 27 3 30 30 30 27 0 30 3 30 30 l0 30 -60 0 -60 0 0
-30 c0 -27 -3 -30 -30 -30 -27 0 -30 3 -30 30 0 27 -3 30 -30 30 -27 0 -30 -3
-30 -30 0 -27 3 -30 30 -30 27 0 30 -3 30 -30 l0 -30 -60 0 -60 0 0 -30 0 -30
-60 0 -60 0 0 60 0 60 30 0 c27 0 30 3 30 30 0 27 -3 30 -30 30 -27 0 -30 -3
-30 -30 0 -27 -3 -30 -30 -30 -27 0 -30 3 -30 30 0 27 -3 30 -30 30 -27 0 -30
3 -30 30 0 27 3 30 30 30 l30 0 0 90 0 90 -60 0 -60 0 0 90 0 90 -30 0 c-27 0
-30 -3 -30 -30 l0 -30 -90 0 -90 0 0 30 0 30 -60 0 -60 0 0 -30 c0 -27 3 -30
30 -30 l30 0 0 -60 0 -60 60 0 60 0 0 -90 0 -90 -30 0 -30 0 0 60 0 60 -30 0
-30 0 0 -120 0 -120 -60 0 -60 0 0 30 c0 27 3 30 30 30 l30 0 0 60 0 60 -30 0
-30 0 0 60 0 60 -30 0 c-27 0 -30 -3 -30 -30 l0 -30 -60 0 -60 0 0 30 c0 27 3
30 30 30 27 0 30 3 30 30 0 27 -3 30 -30 30 -27 0 -30 3 -30 30 0 27 3 30 30
30 l30 0 0 60 0 60 -90 0 -90 0 0 -60 0 -60 -30 0 c-27 0 -30 3 -30 30 0 27
-3 30 -30 30 -27 0 -30 3 -30 30 l0 30 -150 0 -150 0 0 -60z m180 -30 c0 -27
3 -30 30 -30 l30 0 0 -60 0 -60 30 0 30 0 0 60 0 60 30 0 c27 0 30 -3 30 -30
0 -27 3 -30 30 -30 27 0 30 3 30 30 0 27 3 30 30 30 27 0 30 -3 30 -30 0 -27
-3 -30 -30 -30 l-30 0 0 -90 0 -90 30 0 c27 0 30 3 30 30 0 27 3 30 30 30 27
0 30 -3 30 -30 0 -27 3 -30 30 -30 27 0 30 -3 30 -30 0 -27 3 -30 30 -30 27 0
30 3 30 30 0 27 3 30 30 30 27 0 30 -3 30 -30 0 -27 -3 -30 -30 -30 -27 0 -30
-3 -30 -30 0 -27 -3 -30 -30 -30 -27 0 -30 -3 -30 -30 0 -27 -3 -30 -30 -30
-27 0 -30 -3 -30 -30 0 -27 3 -30 30 -30 l30 0 0 -60 0 -60 30 0 c27 0 30 3
30 30 0 27 3 30 30 30 27 0 30 -3 30 -30 0 -27 3 -30 30 -30 l30 0 0 60 0 60
60 0 60 0 0 60 0 60 30 0 c27 0 30 3 30 30 0 27 3 30 30 30 27 0 30 3 30 30 0
27 3 30 30 30 27 0 30 3 30 30 0 27 -3 30 -30 30 -27 0 -30 3 -30 30 0 27 3
30 30 30 27 0 30 -3 30 -30 l0 -30 60 0 60 0 0 -60 0 -60 -30 0 c-27 0 -30 -3
-30 -30 0 -27 3 -30 30 -30 27 0 30 -3 30 -30 0 -27 3 -30 30 -30 27 0 30 -3
30 -30 0 -27 -3 -30 -30 -30 -27 0 -30 -3 -30 -30 l0 -30 60 0 60 0 0 -30 0
-30 -120 0 -120 0 0 60 0 60 30 0 30 0 0 60 0 60 -30 0 c-27 0 -30 -3 -30 -30
l0 -30 -60 0 -60 0 0 -30 c0 -27 -3 -30 -30 -30 -27 0 -30 -3 -30 -30 l0 -30
60 0 60 0 0 -30 c0 -27 -3 -30 -30 -30 l-30 0 0 -90 0 -90 -30 0 c-27 0 -30
-3 -30 -30 0 -27 -3 -30 -30 -30 -27 0 -30 -3 -30 -30 0 -27 -3 -30 -30 -30
-27 0 -30 -3 -30 -30 0 -27 3 -30 30 -30 27 0 30 -3 30 -30 0 -27 3 -30 30
-30 27 0 30 3 30 30 0 27 3 30 30 30 l30 0 0 -60 0 -60 -90 0 -90 0 0 -30 c0
-27 -3 -30 -30 -30 -27 0 -30 3 -30 30 0 27 -3 30 -30 30 l-30 0 0 60 0 60 30
0 c27 0 30 3 30 30 l0 30 -60 0 -60 0 0 -30 c0 -27 -3 -30 -30 -30 -27 0 -30
-3 -30 -30 l0 -30 -60 0 -60 0 0 60 0 60 30 0 c27 0 30 3 30 30 0 27 -3 30
-30 30 l-30 0 0 60 0 60 30 0 30 0 0 -60 0 -60 30 0 30 0 0 60 0 60 60 0 60 0
0 -30 c0 -27 3 -30 30 -30 27 0 30 -3 30 -30 0 -27 3 -30 30 -30 27 0 30 3 30
30 0 27 3 30 30 30 l30 0 0 60 0 60 -30 0 c-27 0 -30 -3 -30 -30 0 -27 -3 -30
-30 -30 l-30 0 0 60 0 60 -30 0 c-27 0 -30 -3 -30 -30 0 -27 -3 -30 -30 -30
-27 0 -30 3 -30 30 0 27 -3 30 -30 30 -27 0 -30 -3 -30 -30 0 -27 -3 -30 -30
-30 -27 0 -30 3 -30 30 0 27 -3 30 -30 30 -27 0 -30 -3 -30 -30 l0 -30 -60 0
-60 0 0 30 0 30 -60 0 -60 0 0 -30 0 -30 -60 0 -60 0 0 30 c0 27 -3 30 -30 30
-27 0 -30 3 -30 30 0 27 -3 30 -30 30 -27 0 -30 -3 -30 -30 0 -27 -3 -30 -30
-30 -27 0 -30 3 -30 30 0 27 3 30 30 30 27 0 30 3 30 30 0 27 3 30 30 30 l30
0 0 60 0 60 90 0 90 0 0 60 0 60 30 0 30 0 0 60 0 60 -30 0 c-27 0 -30 -3 -30
-30 0 -27 -3 -30 -30 -30 -27 0 -30 3 -30 30 0 27 -3 30 -30 30 -27 0 -30 3
-30 30 0 27 3 30 30 30 27 0 30 3 30 30 0 27 -3 30 -30 30 -27 0 -30 3 -30 30
l0 30 60 0 60 0 0 -30z m-60 -300 c0 -27 -3 -30 -30 -30 -27 0 -30 3 -30 30 0
27 3 30 30 30 27 0 30 -3 30 -30z m600 -180 c0 -27 -3 -30 -30 -30 -27 0 -30
3 -30 30 0 27 3 30 30 30 27 0 30 -3 30 -30z m840 -150 l0 -60 30 0 c27 0 30
-3 30 -30 0 -27 -3 -30 -30 -30 -27 0 -30 -3 -30 -30 0 -27 3 -30 30 -30 27 0
30 -3 30 -30 0 -27 3 -30 30 -30 27 0 30 -3 30 -30 0 -27 -3 -30 -30 -30 -27
0 -30 3 -30 30 l0 30 -60 0 -60 0 0 -30 c0 -27 3 -30 30 -30 27 0 30 -3 30
-30 l0 -30 -60 0 -60 0 0 60 0 60 30 0 30 0 0 60 0 60 30 0 c27 0 30 3 30 30
0 27 -3 30 -30 30 -27 0 -30 3 -30 30 0 27 -3 30 -30 30 -27 0 -30 3 -30 30
l0 30 60 0 60 0 0 -60z m-1860 -30 c0 -27 3 -30 30 -30 l30 0 0 -60 0 -60 -30
0 -30 0 0 60 0 60 -30 0 c-27 0 -30 3 -30 30 0 27 3 30 30 30 27 0 30 -3 30
-30z m1440 -60 l0 -30 60 0 60 0 0 -30 0 -30 -60 0 -60 0 0 -30 c0 -27 3 -30
30 -30 27 0 30 -3 30 -30 l0 -30 60 0 60 0 0 90 0 90 60 0 60 0 0 -30 c0 -27
-3 -30 -30 -30 l-30 0 0 -60 0 -60 -30 0 c-27 0 -30 -3 -30 -30 0 -27 -3 -30
-30 -30 -27 0 -30 -3 -30 -30 0 -27 -3 -30 -30 -30 l-30 0 0 60 0 60 -60 0
-60 0 0 30 c0 27 -3 30 -30 30 -27 0 -30 -3 -30 -30 0 -27 -3 -30 -30 -30 -27
0 -30 3 -30 30 0 27 3 30 30 30 l30 0 0 90 0 90 60 0 60 0 0 -30z m-960 -60
l0 -30 -60 0 -60 0 0 -30 c0 -27 3 -30 30 -30 27 0 30 -3 30 -30 0 -27 3 -30
30 -30 27 0 30 3 30 30 l0 30 60 0 60 0 0 -30 c0 -27 3 -30 30 -30 l30 0 0
-90 0 -90 30 0 c27 0 30 -3 30 -30 l0 -30 60 0 60 0 0 -30 c0 -27 3 -30 30
-30 27 0 30 3 30 30 0 27 3 30 30 30 27 0 30 -3 30 -30 l0 -30 120 0 120 0 0
-30 c0 -27 3 -30 30 -30 l30 0 0 -150 0 -150 30 0 c27 0 30 3 30 30 0 27 3 30
30 30 27 0 30 3 30 30 0 27 -3 30 -30 30 -27 0 -30 3 -30 30 0 27 3 30 30 30
27 0 30 -3 30 -30 l0 -30 150 0 150 0 0 90 0 90 30 0 30 0 0 -90 0 -90 30 0
30 0 0 60 0 60 30 0 c27 0 30 -3 30 -30 0 -27 3 -30 30 -30 27 0 30 -3 30 -30
0 -27 -3 -30 -30 -30 -27 0 -30 -3 -30 -30 0 -27 -3 -30 -30 -30 -27 0 -30 -3
-30 -30 l0 -30 -90 0 -90 0 0 30 0 30 -120 0 -120 0 0 -30 0 -30 60 0 60 0 0
-90 0 -90 -30 0 -30 0 0 60 0 60 -30 0 c-27 0 -30 3 -30 30 0 27 -3 30 -30 30
-27 0 -30 -3 -30 -30 0 -27 -3 -30 -30 -30 -27 0 -30 3 -30 30 0 27 -3 30 -30
30 l-30 0 0 -60 0 -60 30 0 c27 0 30 -3 30 -30 0 -27 -3 -30 -30 -30 -27 0
-30 3 -30 30 0 27 -3 30 -30 30 -27 0 -30 -3 -30 -30 l0 -30 -60 0 -60 0 0
-30 c0 -27 -3 -30 -30 -30 l-30 0 0 60 0 60 -30 0 c-27 0 -30 -3 -30 -30 0
-27 -3 -30 -30 -30 -27 0 -30 -3 -30 -30 0 -27 -3 -30 -30 -30 -27 0 -30 -3
-30 -30 l0 -30 -90 0 -90 0 0 30 c0 27 -3 30 -30 30 -27 0 -30 -3 -30 -30 0
-27 -3 -30 -30 -30 -27 0 -30 3 -30 30 0 27 3 30 30 30 27 0 30 3 30 30 l0 30
-90 0 -90 0 0 30 c0 27 3 30 30 30 27 0 30 3 30 30 0 27 -3 30 -30 30 -27 0
-30 3 -30 30 l0 30 -90 0 -90 0 0 30 c0 27 -3 30 -30 30 -27 0 -30 3 -30 30 0
27 3 30 30 30 27 0 30 3 30 30 l0 30 60 0 60 0 0 -30 c0 -27 3 -30 30 -30 l30
0 0 60 0 60 -30 0 c-27 0 -30 3 -30 30 0 27 -3 30 -30 30 -27 0 -30 -3 -30
-30 l0 -30 -60 0 -60 0 0 -30 c0 -27 -3 -30 -30 -30 -27 0 -30 3 -30 30 0 27
3 30 30 30 27 0 30 3 30 30 0 27 -3 30 -30 30 -27 0 -30 3 -30 30 l0 30 60 0
60 0 0 30 0 30 -90 0 -90 0 0 60 0 60 -30 0 c-27 0 -30 3 -30 30 0 27 3 30 30
30 27 0 30 -3 30 -30 0 -27 3 -30 30 -30 27 0 30 3 30 30 0 27 3 30 30 30 27
0 30 3 30 30 0 27 -3 30 -30 30 -27 0 -30 3 -30 30 l0 30 60 0 60 0 0 30 0 30
60 0 60 0 0 30 0 30 90 0 90 0 0 -30z m180 0 l0 -30 -60 0 -60 0 0 30 0 30 60
0 60 0 0 -30z m720 -300 l0 -90 60 0 60 0 0 30 c0 27 3 30 30 30 27 0 30 -3
30 -30 0 -27 -3 -30 -30 -30 l-30 0 0 -90 0 -90 30 0 c27 0 30 -3 30 -30 0
-27 -3 -30 -30 -30 -27 0 -30 3 -30 30 l0 30 -60 0 -60 0 0 30 c0 27 -3 30
-30 30 -27 0 -30 3 -30 30 0 27 -3 30 -30 30 -27 0 -30 3 -30 30 0 27 3 30 30
30 l30 0 0 90 0 90 30 0 30 0 0 -90z m240 -180 c0 -27 -3 -30 -30 -30 -27 0
-30 3 -30 30 0 27 3 30 30 30 27 0 30 -3 30 -30z m-1620 -150 l0 -60 -30 0
c-27 0 -30 -3 -30 -30 0 -27 -3 -30 -30 -30 l-30 0 0 60 0 60 30 0 c27 0 30 3
30 30 0 27 3 30 30 30 l30 0 0 -60z m1740 -330 l0 -90 -90 0 -90 0 0 90 0 90
90 0 90 0 0 -90z m240 60 c0 -27 -3 -30 -30 -30 -27 0 -30 3 -30 30 0 27 3 30
30 30 27 0 30 -3 30 -30z m-480 -180 c0 -27 -3 -30 -30 -30 -27 0 -30 3 -30
30 0 27 3 30 30 30 27 0 30 -3 30 -30z m240 -90 l0 -60 -30 0 -30 0 0 60 0 60
30 0 30 0 0 -60z m-900 -30 c0 -27 3 -30 30 -30 27 0 30 -3 30 -30 l0 -30 -60
0 -60 0 0 60 0 60 30 0 c27 0 30 -3 30 -30z"/>
<path d="M840 2250 c0 -27 3 -30 30 -30 27 0 30 3 30 30 0 27 -3 30 -30 30
-27 0 -30 -3 -30 -30z"/>
<path d="M960 2070 c0 -27 3 -30 30 -30 27 0 30 3 30 30 0 27 -3 30 -30 30
-27 0 -30 -3 -30 -30z"/>
<path d="M1080 2040 l0 -60 -30 0 c-27 0 -30 -3 -30 -30 0 -27 -3 -30 -30 -30
-27 0 -30 -3 -30 -30 0 -27 -3 -30 -30 -30 -27 0 -30 3 -30 30 0 27 -3 30 -30
30 -27 0 -30 -3 -30 -30 0 -27 3 -30 30 -30 27 0 30 -3 30 -30 l0 -30 -60 0
-60 0 0 30 c0 27 -3 30 -30 30 -27 0 -30 -3 -30 -30 0 -27 3 -30 30 -30 27 0
30 -3 30 -30 l0 -30 60 0 60 0 0 30 c0 27 3 30 30 30 27 0 30 3 30 30 0 27 3
30 30 30 27 0 30 -3 30 -30 l0 -30 60 0 60 0 0 30 c0 27 3 30 30 30 l30 0 0
-60 0 -60 30 0 30 0 0 60 0 60 -30 0 -30 0 0 90 0 90 30 0 c27 0 30 3 30 30 0
27 -3 30 -30 30 -27 0 -30 -3 -30 -30 0 -27 -3 -30 -30 -30 -27 0 -30 3 -30
30 0 27 -3 30 -30 30 l-30 0 0 -60z m60 -90 c0 -27 -3 -30 -30 -30 -27 0 -30
3 -30 30 0 27 3 30 30 30 27 0 30 -3 30 -30z"/>
<path d="M1800 2070 c0 -27 3 -30 30 -30 27 0 30 3 30 30 0 27 -3 30 -30 30
-27 0 -30 -3 -30 -30z"/>
<path d="M1260 1470 c0 -27 3 -30 30 -30 27 0 30 3 30 30 0 27 -3 30 -30 30
-27 0 -30 -3 -30 -30z"/>
<path d="M1440 1320 l0 -60 30 0 30 0 0 60 0 60 -30 0 -30 0 0 -60z"/>
<path d="M600 1470 l0 -30 60 0 60 0 0 -30 0 -30 -60 0 -60 0 0 -30 c0 -27 3
-30 30 -30 27 0 30 -3 30 -30 0 -27 -3 -30 -30 -30 -27 0 -30 -3 -30 -30 0
-27 3 -30 30 -30 27 0 30 -3 30 -30 0 -27 -3 -30 -30 -30 -27 0 -30 -3 -30
-30 0 -27 3 -30 30 -30 27 0 30 3 30 30 0 27 3 30 30 30 27 0 30 -3 30 -30 l0
-30 60 0 60 0 0 30 c0 27 -3 30 -30 30 -27 0 -30 3 -30 30 0 27 3 30 30 30 27
0 30 3 30 30 0 27 3 30 30 30 l30 0 0 -90 0 -90 60 0 60 0 0 30 c0 27 3 30 30
30 27 0 30 3 30 30 0 27 -3 30 -30 30 -27 0 -30 3 -30 30 0 27 -3 30 -30 30
l-30 0 0 60 0 60 30 0 c27 0 30 3 30 30 0 27 -3 30 -30 30 -27 0 -30 -3 -30
-30 l0 -30 -60 0 -60 0 0 30 0 30 -60 0 -60 0 0 30 0 30 -60 0 -60 0 0 -30z
m240 -180 c0 -27 -3 -30 -30 -30 -27 0 -30 3 -30 30 0 27 3 30 30 30 27 0 30
-3 30 -30z m-120 -60 c0 -27 -3 -30 -30 -30 -27 0 -30 3 -30 30 0 27 3 30 30
30 27 0 30 -3 30 -30z"/>
<path d="M1320 1110 l0 -30 -60 0 -60 0 0 -30 0 -30 -120 0 -120 0 0 -150 0
-150 -30 0 c-27 0 -30 3 -30 30 0 27 -3 30 -30 30 -27 0 -30 -3 -30 -30 0 -27
3 -30 30 -30 27 0 30 -3 30 -30 l0 -30 60 0 60 0 0 30 c0 27 3 30 30 30 l30 0
0 -60 0 -60 -30 0 c-27 0 -30 -3 -30 -30 l0 -30 60 0 60 0 0 30 c0 27 3 30 30
30 l30 0 0 60 0 60 30 0 c27 0 30 3 30 30 0 27 -3 30 -30 30 -27 0 -30 3 -30
30 0 27 -3 30 -30 30 -27 0 -30 3 -30 30 0 27 -3 30 -30 30 -27 0 -30 -3 -30
-30 0 -27 3 -30 30 -30 27 0 30 -3 30 -30 l0 -30 -60 0 -60 0 0 90 0 90 120 0
120 0 0 -30 c0 -27 3 -30 30 -30 l30 0 0 -90 0 -90 60 0 60 0 0 -30 0 -30 60
0 60 0 0 90 0 90 30 0 30 0 0 60 0 60 -30 0 c-27 0 -30 3 -30 30 0 27 -3 30
-30 30 -27 0 -30 3 -30 30 0 27 -3 30 -30 30 -27 0 -30 -3 -30 -30 0 -27 3
-30 30 -30 27 0 30 -3 30 -30 0 -27 3 -30 30 -30 l30 0 0 -60 0 -60 -90 0 -90
0 0 30 c0 27 -3 30 -30 30 -27 0 -30 3 -30 30 0 27 -3 30 -30 30 -27 0 -30 3
-30 30 0 27 3 30 30 30 27 0 30 3 30 30 0 27 3 30 30 30 27 0 30 3 30 30 0 27
-3 30 -30 30 -27 0 -30 -3 -30 -30z m-120 -360 c0 -27 -3 -30 -30 -30 -27 0
-30 3 -30 30 0 27 3 30 30 30 27 0 30 -3 30 -30z m300 0 c0 -27 -3 -30 -30
-30 -27 0 -30 3 -30 30 0 27 3 30 30 30 27 0 30 -3 30 -30z"/>
<path d="M840 990 c0 -27 3 -30 30 -30 27 0 30 3 30 30 0 27 -3 30 -30 30 -27
0 -30 -3 -30 -30z"/>
<path d="M600 870 l0 -30 60 0 60 0 0 30 0 30 -60 0 -60 0 0 -30z"/>
<path d="M2100 870 c0 -27 3 -30 30 -30 27 0 30 3 30 30 0 27 -3 30 -30 30
-27 0 -30 -3 -30 -30z"/>
<path d="M2040 630 c0 -27 3 -30 30 -30 27 0 30 3 30 30 0 27 -3 30 -30 30
-27 0 -30 -3 -30 -30z"/>
<path d="M1920 2400 l0 -60 30 0 30 0 0 60 0 60 -30 0 -30 0 0 -60z"/>
<path d="M2040 2250 l0 -210 210 0 210 0 0 210 0 210 -210 0 -210 0 0 -210z
m360 0 l0 -150 -150 0 -150 0 0 150 0 150 150 0 150 0 0 -150z"/>
<path d="M2160 2250 l0 -90 90 0 90 0 0 90 0 90 -90 0 -90 0 0 -90z"/>
<path d="M1380 2310 c0 -27 3 -30 30 -30 27 0 30 3 30 30 0 27 -3 30 -30 30
-27 0 -30 -3 -30 -30z"/>
<path d="M240 1950 c0 -27 3 -30 30 -30 27 0 30 3 30 30 0 27 -3 30 -30 30
-27 0 -30 -3 -30 -30z"/>
<path d="M240 450 l0 -210 210 0 210 0 0 210 0 210 -210 0 -210 0 0 -210z
m360 0 l0 -150 -150 0 -150 0 0 150 0 150 150 0 150 0 0 -150z"/>
<path d="M360 450 l0 -90 90 0 90 0 0 90 0 90 -90 0 -90 0 0 -90z"/>
<path d="M2400 450 c0 -27 3 -30 30 -30 27 0 30 3 30 30 0 27 -3 30 -30 30
-27 0 -30 -3 -30 -30z"/>
</g>
</svg>
